<svg id="Layer_1" data-name="Layer 1" xmlns="http://www.w3.org/2000/svg" viewBox="0 0 28 24"><title>Artboard 1 copy</title><rect width="28" height="24" style="fill:none"/><g id="Iconscout_Color" data-name="Iconscout Color"><path id="Fill-17" d="M16.21255,19.2989l1.96278,3.402a.866.866,0,0,1-.74946,1.299L8.076,24A1.73042,1.73042,0,0,1,6.577,23.134L.65289,12.866a1.73312,1.73312,0,0,1,0-1.73205L6.577.866A1.73019,1.73019,0,0,1,8.076,0H19.92413a1.73059,1.73059,0,0,1,1.49892.866l5.92414,10.2679a1.73366,1.73366,0,0,1,0,1.73205l-4.675,8.10284a.86512.86512,0,0,1-1.499,0l-1.97663-3.426a.86949.86949,0,0,1,.09314-.99636,6.92428,6.92428,0,1,0-3.99955,2.33707A.87192.87192,0,0,1,16.21255,19.2989ZM14,8.56928a3.4641,3.4641,0,1,1-3.46169,3.46409A3.46284,3.46284,0,0,1,14,8.56928Z" style="fill:#6563ff;fill-rule:evenodd"/></g></svg>